<svg version="1.1" xmlns="http://www.w3.org/2000/svg" viewBox="0 0 763.3651096280664 661.1369254121184" width="763.3651096280664" height="661.1369254121184">
  <!-- svg-source:excalidraw -->
  
  <defs>
    <style class="style-fonts">
      @font-face {
        font-family: "Virgil";
        src: url("https://excalidraw.com/Virgil.woff2");
      }
      @font-face {
        font-family: "Cascadia";
        src: url("https://excalidraw.com/Cascadia.woff2");
      }
    </style>
  </defs>
  <g transform="translate(10 10) rotate(0 216.5 22.5)"><text x="0" y="32" font-family="Virgil, Segoe UI Emoji" font-size="36px" fill="#000000" text-anchor="start" style="white-space: pre;" direction="ltr">Streamlit_Test_System</text></g><g stroke-linecap="round"><g transform="translate(228.33331298828125 66) rotate(0 0.38361858251460035 291.1112508353591)"><path d="M1.5 -0.29 C0.75 97.13, -1.82 485.22, -2.22 582.85 M-1.13 -2.91 C-1.22 94.91, 3.32 486.54, 2.97 585.14" stroke="#000000" stroke-width="1" fill="none"></path></g></g><mask></mask><g transform="translate(318.3651096280664 148.86545400974546) rotate(0 64.5 22.5)"><text x="0" y="32" font-family="Virgil, Segoe UI Emoji" font-size="36px" fill="#000000" text-anchor="start" style="white-space: pre;" direction="ltr">Home.py</text></g><g transform="translate(318.3651096280664 88.86545400974546) rotate(0 109 22.5)"><text x="0" y="32" font-family="Virgil, Segoe UI Emoji" font-size="36px" fill="#000000" text-anchor="start" style="white-space: pre;" direction="ltr">__init__.py</text></g><g transform="translate(318.36517744490686 488.86545400974546) rotate(0 99.5 22.5)"><text x="0" y="32" font-family="Virgil, Segoe UI Emoji" font-size="36px" fill="#000000" text-anchor="start" style="white-space: pre;" direction="ltr">\old_pages</text></g><g transform="translate(318.3651096280664 531.8284734867416) rotate(0 59.5 22.5)"><text x="0" y="32" font-family="Virgil, Segoe UI Emoji" font-size="36px" fill="#000000" text-anchor="start" style="white-space: pre;" direction="ltr">\tests</text></g><g transform="translate(318.3651096280664 208.86545400974546) rotate(0 59.5 22.5)"><text x="0" y="32" font-family="Virgil, Segoe UI Emoji" font-size="36px" fill="#000000" text-anchor="start" style="white-space: pre;" direction="ltr">\pages</text></g><g transform="translate(318.3651096280664 268.86545400974546) rotate(0 92 22.5)"><text x="0" y="32" font-family="Virgil, Segoe UI Emoji" font-size="36px" fill="#000000" text-anchor="start" style="white-space: pre;" direction="ltr">\questions</text></g><g transform="translate(318.3651096280664 328.86545400974546) rotate(0 217.5 22.5)"><text x="0" y="32" font-family="Virgil, Segoe UI Emoji" font-size="36px" fill="#000000" text-anchor="start" style="white-space: pre;" direction="ltr">\students_and_answers</text></g></svg>